<svg width="83" height="84" viewBox="0 0 83 84" fill="none" xmlns="http://www.w3.org/2000/svg">
<g clip-path="url(#clip0_1_135)">
<path d="M17.7857 21V11.5172C17.7857 9.33513 19.3234 7.36638 21.6393 6.59529L39.425 0.689038C40.7589 0.246069 42.2411 0.246069 43.5935 0.689038L61.3792 6.59529C63.6951 7.36638 65.2328 9.31873 65.2328 11.5172V21H65.1772C65.2143 21.4265 65.2328 21.8695 65.2328 22.3125V28.875C65.2328 40.4742 54.617 49.875 41.5185 49.875C28.4201 49.875 17.8042 40.4742 17.8042 28.875V22.3125C17.8042 21.8695 17.8228 21.4265 17.8598 21H17.7857ZM26.6786 28.875C26.6786 36.1265 33.3112 42 41.5 42C49.6888 42 56.3214 36.1265 56.3214 28.875V26.25H26.6786V28.875ZM20.7315 53.7633C22.6768 53.2055 24.7703 53.8289 26.1783 55.1578L39.3324 67.5445C40.4996 68.6437 42.4819 68.6437 43.6491 67.5445L56.8031 55.1578C58.2112 53.8289 60.3047 53.2055 62.25 53.7633C74.2924 57.1922 83 67.1672 83 78.9633C83 81.7523 80.4433 84 77.3123 84H5.68772C2.5567 84 0 81.7359 0 78.9633C0 67.1672 8.70759 57.1922 20.7315 53.7633ZM38.5357 7.87498V10.5H35.5714C34.7562 10.5 34.0893 11.0906 34.0893 11.8125V14.4375C34.0893 15.1594 34.7562 15.75 35.5714 15.75H38.5357V18.375C38.5357 19.0969 39.2027 19.6875 40.0179 19.6875H42.9821C43.7973 19.6875 44.4643 19.0969 44.4643 18.375V15.75H47.4286C48.2437 15.75 48.9107 15.1594 48.9107 14.4375V11.8125C48.9107 11.0906 48.2437 10.5 47.4286 10.5H44.4643V7.87498C44.4643 7.1531 43.7973 6.56248 42.9821 6.56248H40.0179C39.2027 6.56248 38.5357 7.1531 38.5357 7.87498Z" fill="#FFC600"/>
</g>
<defs>
<clipPath id="clip0_1_135">
<path d="M0 0H83V84H0V0Z" fill="white"/>
</clipPath>
</defs>
</svg>
