<svg width="90" height="90" viewBox="0 0 90 90" fill="none" xmlns="http://www.w3.org/2000/svg">
<g clip-path="url(#clip0_1_100)">
<path d="M90 90H0V0H90V90Z" stroke="#E5E7EB"/>
<path d="M8.36719 52.8047L40.1309 82.459C41.4492 83.6894 43.1895 84.375 45 84.375C46.8105 84.375 48.5508 83.6894 49.8691 82.459L81.6328 52.8047C86.9766 47.83 90 40.8515 90 33.5566V32.5371C90 20.25 81.123 9.7734 69.0117 7.75192C60.9961 6.41598 52.8398 9.03512 47.1094 14.7656L45 16.875L42.8906 14.7656C37.1602 9.03512 29.0039 6.41598 20.9883 7.75192C8.87695 9.7734 0 20.25 0 32.5371V33.5566C0 40.8515 3.02344 47.83 8.36719 52.8047Z" fill="#FF8D6B"/>
</g>
<defs>
<clipPath id="clip0_1_100">
<rect width="90" height="90" fill="white"/>
</clipPath>
</defs>
</svg>
