<svg width="90" height="84" viewBox="0 0 90 84" fill="none" xmlns="http://www.w3.org/2000/svg">
<path d="M89.9688 41.918C89.9688 44.8711 87.625 47.1844 84.9688 47.1844H79.9688L80.0781 73.4672C80.1094 79.2914 75.625 84.0164 70.0781 84.0164H20.0156C14.5 84.0164 10.0156 79.3078 10.0156 73.5164V47.1844H5C2.1875 47.1844 0 44.8875 0 41.918C0 40.4414 0.46875 39.1289 1.5625 37.9805L41.625 1.3125C42.7188 0.164062 43.9688 0 45.0625 0C46.1563 0 47.4063 0.328125 48.3438 1.14844L88.25 37.9805C89.5 39.1289 90.125 40.4414 89.9688 41.918ZM55 36.75C55 33.9652 53.9464 31.2945 52.0711 29.3254C50.1957 27.3562 47.6522 26.25 45 26.25C42.3478 26.25 39.8043 27.3562 37.9289 29.3254C36.0536 31.2945 35 33.9652 35 36.75C35 39.5348 36.0536 42.2055 37.9289 44.1746C39.8043 46.1437 42.3478 47.25 45 47.25C47.6522 47.25 50.1957 46.1437 52.0711 44.1746C53.9464 42.2055 55 39.5348 55 36.75ZM40 52.5C33.0938 52.5 27.5 58.3734 27.5 65.625C27.5 67.0688 28.625 68.25 30 68.25H60C61.375 68.25 62.5 67.0688 62.5 65.625C62.5 58.3734 56.9063 52.5 50 52.5H40Z" fill="#006881"/>
</svg>
