<svg width="90" height="84" viewBox="0 0 90 84" fill="none" xmlns="http://www.w3.org/2000/svg">
<path d="M10 0C4.48438 0 0 4.70859 0 10.5V73.5C0 79.2914 4.48438 84 10 84H50C55.5156 84 60 79.2914 60 73.5V70.3336C59.5781 70.5141 59.1562 70.6617 58.7188 70.7766L49.3281 73.2375C48.8594 73.3523 48.3906 73.4344 47.9219 73.4672C47.7813 73.4836 47.6406 73.5 47.5 73.5H37.5C36.5469 73.5 35.6875 72.9422 35.2656 72.0563L33.8906 69.1523C33.625 68.5945 33.0938 68.25 32.5156 68.25C31.9375 68.25 31.3906 68.5945 31.1406 69.1523L29.7656 72.0563C29.3125 73.0242 28.3281 73.5984 27.3125 73.5C26.2969 73.4016 25.4219 72.6633 25.1406 71.6461L22.5 62.5078L20.9688 67.8891C20.0156 71.2195 17.0938 73.5 13.7812 73.5H12.5C11.125 73.5 10 72.3187 10 70.875C10 69.4313 11.125 68.25 12.5 68.25H13.7812C14.8906 68.25 15.8594 67.4953 16.1719 66.3797L18.5 58.2586C19.0312 56.4047 20.6562 55.125 22.5 55.125C24.3438 55.125 25.9688 56.4047 26.5 58.2586L28.3125 64.5914C29.4688 63.5742 30.9375 63 32.5 63C34.9844 63 37.25 64.4766 38.3594 66.8063L39.0469 68.25H40.4375C39.9531 66.8063 39.8594 65.2313 40.2188 63.6891L42.5625 53.8289C43 51.975 43.9063 50.3016 45.1875 48.9562L60 33.4031V26.25H40C37.2344 26.25 35 23.9039 35 21V0H10ZM40 0V21H60L40 0ZM85.9062 22.9195C83.4688 20.3602 79.5156 20.3602 77.0625 22.9195L72.4688 27.743L83.5625 39.3914L88.1562 34.568C90.5938 32.0086 90.5938 27.8578 88.1562 25.282L85.9062 22.9195ZM48.7344 52.6641C48.0938 53.3367 47.6406 54.1734 47.4219 55.1086L45.0781 64.9688C44.8594 65.8711 45.1094 66.8063 45.7344 67.4625C46.3594 68.1188 47.25 68.3812 48.1094 68.1516L57.5 65.6906C58.375 65.4609 59.1875 64.9852 59.8281 64.3125L80.0156 43.0992L68.9219 31.4508L48.7344 52.6641Z" fill="#009982"/>
</svg>
