<svg width="30" height="30" viewBox="0 0 30 30" fill="none" xmlns="http://www.w3.org/2000/svg">
<path d="M8.4375 0.9375C8.4375 0.421875 8.01562 0 7.5 0C6.98438 0 6.5625 0.421875 6.5625 0.9375V1.875H5.625C5.10938 1.875 4.6875 2.29688 4.6875 2.8125C4.6875 3.32812 5.10938 3.75 5.625 3.75H6.5625V5.625H3.52734C2.87695 5.625 2.34375 6.1582 2.34375 6.80859C2.34375 6.95508 2.37305 7.0957 2.41992 7.23633L4.32422 12.1875H4.21875C3.43945 12.1875 2.8125 12.8145 2.8125 13.5938C2.8125 14.373 3.43945 15 4.21875 15H4.45312L3.51562 22.5H11.4844L10.5469 15H10.7812C11.5605 15 12.1875 14.373 12.1875 13.5938C12.1875 12.8145 11.5605 12.1875 10.7812 12.1875H10.6758L12.5801 7.23633C12.6328 7.10156 12.6562 6.95508 12.6562 6.80859C12.6562 6.15234 12.123 5.625 11.4727 5.625H8.4375V3.75H9.375C9.89062 3.75 10.3125 3.32812 10.3125 2.8125C10.3125 2.29688 9.89062 1.875 9.375 1.875H8.4375V0.9375ZM2.8125 24.375L0.28125 27.75C0.0996094 27.9961 0 28.2891 0 28.5938C0 29.373 0.626953 30 1.40625 30H13.5938C14.373 30 15 29.373 15 28.5938C15 28.2891 14.9004 27.9961 14.7188 27.75L12.1875 24.375H2.8125ZM19.6875 24.375L17.1562 27.75C16.9746 27.9961 16.875 28.2891 16.875 28.5938C16.875 29.373 17.502 30 18.2812 30H28.5938C29.373 30 30 29.373 30 28.5938C30 28.2891 29.9004 27.9961 29.7188 27.75L27.1875 24.375H19.6875ZM17.8125 12.1875V15.2285C17.8125 15.6855 17.9766 16.125 18.2812 16.4648L19.875 18.2812L19.7461 22.5H27.0996L26.9062 18.2812L28.5645 16.4766C28.8809 16.1309 29.0625 15.6797 29.0625 15.2051V12.1875C29.0625 11.6719 28.6406 11.25 28.125 11.25H27.1875C26.6719 11.25 26.25 11.6719 26.25 12.1875V13.125H24.8438V12.1875C24.8438 11.6719 24.4219 11.25 23.9062 11.25H22.9688C22.4531 11.25 22.0312 11.6719 22.0312 12.1875V13.125H20.625V12.1875C20.625 11.6719 20.2031 11.25 19.6875 11.25H18.75C18.2344 11.25 17.8125 11.6719 17.8125 12.1875ZM22.5 17.8125C22.5 17.2969 22.9219 16.875 23.4375 16.875C23.9531 16.875 24.375 17.2969 24.375 17.8125V19.6875H22.5V17.8125Z" fill="#62CBC9"/>
</svg>
