<svg width="30" height="27" viewBox="0 0 30 27" fill="none" xmlns="http://www.w3.org/2000/svg">
<path d="M2.78906 15.6016L13.377 25.4863C13.8164 25.8965 14.3965 26.125 15 26.125C15.6035 26.125 16.1836 25.8965 16.623 25.4863L27.2109 15.6016C28.9922 13.9434 30 11.6172 30 9.18556V8.84571C30 4.75001 27.041 1.25782 23.0039 0.583993C20.332 0.13868 17.6133 1.01173 15.7031 2.92188L15 3.62501L14.2969 2.92188C12.3867 1.01173 9.66797 0.13868 6.99609 0.583993C2.95898 1.25782 0 4.75001 0 8.84571V9.18556C0 11.6172 1.00781 13.9434 2.78906 15.6016Z" fill="#FF8D6B"/>
</svg>
