<svg width="30" height="27" viewBox="0 0 30 27" fill="none" xmlns="http://www.w3.org/2000/svg">
<path d="M13.377 25.4863L2.78906 15.6015C2.54297 15.373 2.30859 15.1269 2.0918 14.8749H7.18945C8.51367 14.8749 9.70898 14.0781 10.2188 12.8535L10.834 11.3769L13.7227 17.7929C13.9453 18.291 14.4316 18.6132 14.9766 18.6191C15.5215 18.6249 16.0195 18.3261 16.2656 17.8398L18.75 12.8652L18.8496 13.0644C19.4062 14.1777 20.543 14.8808 21.7852 14.8808H27.9082C27.6914 15.1328 27.457 15.3789 27.2109 15.6074L16.623 25.4863C16.1836 25.8964 15.6035 26.1249 15 26.1249C14.3965 26.1249 13.8164 25.8964 13.377 25.4863ZM29.5137 12.0624H21.7793C21.6035 12.0624 21.4395 11.9628 21.3574 11.8046L19.998 9.09174C19.7578 8.61714 19.2715 8.31245 18.7383 8.31245C18.2051 8.31245 17.7188 8.61128 17.4785 9.09174L15.0527 13.9433L12.0645 7.26948C11.8359 6.75971 11.3203 6.43159 10.7637 6.44331C10.207 6.45503 9.70312 6.78901 9.48633 7.31049L7.62305 11.7812C7.55273 11.957 7.37695 12.0683 7.18945 12.0683H0.9375C0.785156 12.0683 0.644531 12.0917 0.509766 12.1328C0.175781 11.1953 0 10.1992 0 9.18549V8.84565C0 4.74995 2.95898 1.25776 6.99609 0.583932C9.66797 0.138619 12.3867 1.01167 14.2969 2.92182L15 3.62495L15.7031 2.92182C17.6133 1.01167 20.332 0.138619 23.0039 0.583932C27.041 1.25776 30 4.74995 30 8.84565V9.18549C30 10.1757 29.8359 11.1484 29.5137 12.0624Z" fill="#62CBC9"/>
</svg>
