<svg width="32" height="36" viewBox="0 0 32 36" fill="none" xmlns="http://www.w3.org/2000/svg">
<path d="M9.25 0C10.4945 0 11.5 1.00547 11.5 2.25V4.5H20.5V2.25C20.5 1.00547 21.5055 0 22.75 0C23.9945 0 25 1.00547 25 2.25V4.5H28.375C30.2383 4.5 31.75 6.01172 31.75 7.875V11.25H0.25V7.875C0.25 6.01172 1.76172 4.5 3.625 4.5H7V2.25C7 1.00547 8.00547 0 9.25 0ZM0.25 13.5H31.75V32.625C31.75 34.4883 30.2383 36 28.375 36H3.625C1.76172 36 0.25 34.4883 0.25 32.625V13.5ZM23.3828 21.4453C24.0437 20.7844 24.0437 19.7156 23.3828 19.0617C22.7219 18.4078 21.6531 18.4008 20.9992 19.0617L14.3195 25.7414L11.0148 22.4367C10.3539 21.7758 9.28516 21.7758 8.63125 22.4367C7.97734 23.0977 7.97031 24.1664 8.63125 24.8203L13.1312 29.3203C13.7922 29.9812 14.8609 29.9812 15.5148 29.3203L23.3828 21.4453Z" fill="currentColor"/>
</svg>
