<svg width="42" height="36" viewBox="0 0 42 36" fill="none" xmlns="http://www.w3.org/2000/svg">
<path d="M11.1562 5.38594C11.1562 2.41172 13.568 0 16.5422 0C17.9695 0 19.3406 0.569531 20.3461 1.575L21 2.22891L21.6539 1.575C22.6594 0.569531 24.0305 0 25.4578 0C28.432 0 30.8438 2.41172 30.8438 5.38594C30.8438 6.81328 30.2742 8.18437 29.2688 9.18984L21.9914 16.4602C21.443 17.0086 20.55 17.0086 20.0016 16.4602L12.7312 9.18984C11.7258 8.18437 11.1562 6.81328 11.1562 5.38594ZM40.7016 23.6461C41.6227 24.8977 41.3555 26.6555 40.1039 27.5766L31.2023 34.1367C29.557 35.3461 27.5742 36 25.5281 36H14.25H3C1.75547 36 0.75 34.9945 0.75 33.75V29.25C0.75 28.0055 1.75547 27 3 27H5.5875L8.74453 24.4688C10.3406 23.1891 12.3234 22.5 14.3695 22.5H19.875H21H25.5C26.7445 22.5 27.75 23.5055 27.75 24.75C27.75 25.9945 26.7445 27 25.5 27H21H19.875C19.2562 27 18.75 27.5062 18.75 28.125C18.75 28.7438 19.2562 29.25 19.875 29.25H28.3547L36.7711 23.0484C38.0227 22.1273 39.7805 22.3945 40.7016 23.6461ZM14.3625 27H14.2992C14.3203 27 14.3414 27 14.3625 27Z" fill="#62CBC9"/>
</svg>
