<svg width="15" height="21" viewBox="0 0 15 21" fill="none" xmlns="http://www.w3.org/2000/svg">
<path d="M8.42578 20C10.4297 17.4922 15 11.4141 15 8C15 3.85938 11.6406 0.5 7.5 0.5C3.35938 0.5 0 3.85938 0 8C0 11.4141 4.57031 17.4922 6.57422 20C7.05469 20.5977 7.94531 20.5977 8.42578 20ZM7.5 5.5C8.16304 5.5 8.79893 5.76339 9.26777 6.23223C9.73661 6.70107 10 7.33696 10 8C10 8.66304 9.73661 9.29893 9.26777 9.76777C8.79893 10.2366 8.16304 10.5 7.5 10.5C6.83696 10.5 6.20107 10.2366 5.73223 9.76777C5.26339 9.29893 5 8.66304 5 8C5 7.33696 5.26339 6.70107 5.73223 6.23223C6.20107 5.76339 6.83696 5.5 7.5 5.5Z" fill="currentColor"/>
</svg>
