<svg width="32" height="36" viewBox="0 0 32 36" fill="none" xmlns="http://www.w3.org/2000/svg">
<path d="M16 18C18.3869 18 20.6761 17.0518 22.364 15.364C24.0518 13.6761 25 11.3869 25 9C25 6.61305 24.0518 4.32387 22.364 2.63604C20.6761 0.948212 18.3869 0 16 0C13.6131 0 11.3239 0.948212 9.63604 2.63604C7.94821 4.32387 7 6.61305 7 9C7 11.3869 7.94821 13.6761 9.63604 15.364C11.3239 17.0518 13.6131 18 16 18ZM12.7867 21.375C5.86094 21.375 0.25 26.9859 0.25 33.9117C0.25 35.0648 1.18516 36 2.33828 36H29.6617C30.8148 36 31.75 35.0648 31.75 33.9117C31.75 26.9859 26.1391 21.375 19.2133 21.375H12.7867Z" fill="currentColor"/>
</svg>
