<svg width="36" height="36" viewBox="0 0 36 36" fill="none" xmlns="http://www.w3.org/2000/svg">
<path d="M18 3.375C9.92109 3.375 3.375 9.92109 3.375 18V20.8125C3.375 21.7477 2.62266 22.5 1.6875 22.5C0.752344 22.5 0 21.7477 0 20.8125V18C0 8.05781 8.05781 0 18 0C27.9422 0 36 8.05781 36 18V28.132C36 31.5492 33.2297 34.3195 29.8055 34.3195L22.05 34.3125C21.4664 35.318 20.3766 36 19.125 36H16.875C15.0117 36 13.5 34.4883 13.5 32.625C13.5 30.7617 15.0117 29.25 16.875 29.25H19.125C20.3766 29.25 21.4664 29.932 22.05 30.9375L29.8125 30.9445C31.3664 30.9445 32.625 29.6859 32.625 28.132V18C32.625 9.92109 26.0789 3.375 18 3.375ZM10.125 14.625H11.25C12.4945 14.625 13.5 15.6305 13.5 16.875V24.75C13.5 25.9945 12.4945 27 11.25 27H10.125C7.64297 27 5.625 24.982 5.625 22.5V19.125C5.625 16.643 7.64297 14.625 10.125 14.625ZM25.875 14.625C28.357 14.625 30.375 16.643 30.375 19.125V22.5C30.375 24.982 28.357 27 25.875 27H24.75C23.5055 27 22.5 25.9945 22.5 24.75V16.875C22.5 15.6305 23.5055 14.625 24.75 14.625H25.875Z" fill="currentColor"/>
</svg>
